:version 1.10
:name ASF
:units
  mass 1
  length 1
  angle deg
:documentation
  ASF file generated by Kaydara
:root
  axis xyz
  order  tx ty tz rx ry rz
  position 0 0 0
  orientation 0 0 0
:bonedata
  begin
    id 1
    name RightUpLegDummy
    direction -1 2.30186e-007 8.31532e-007
    length 4.46685
    axis 0 0 0 xyz
  end
  begin
    id 2
    name RightUpLeg
    direction -2.30187e-007 -1 1.24343e-010
    length 16.4045
    axis -3.49089 -0.000906625 0.000286804 xyz
    dof rx ry rz
  end
  begin
    id 3
    name RightLeg
    direction -2.30181e-007 -1 -4.17157e-009
    length 17.5097
    axis 3.68512 0.0193738 -0.131023 xyz
    dof rx ry rz
  end
  begin
    id 4
    name RightFoot
    direction 8.31421e-007 -4.51202e-011 1
    length 6.49508
    axis 4.81691e-005 -0.120479 -0.188788 xyz
    dof rx ry rz
  end
  begin
    id 5
    name RightToes
    direction 0.00124746 -0.014064 0.9999
    length 3.85082
    axis 0.000481921 0.542163 -0.142578 xyz
    dof rx ry rz
  end
  begin
    id 6
    name SpineDummy
    direction 0.0717043 0.9409 -0.331007
    length 10.0032
    axis 0 0 0 xyz
  end
  begin
    id 7
    name Spine
    direction 2.30186e-007 1 4.58806e-011
    length 9.84055
    axis -0.001389 0.000121418 2.40972e-006 xyz
    dof rx ry rz
  end
  begin
    id 8
    name Spine1
    direction 0 0 0
    length 0
    axis -0.001389 0.000121451 1.30017e-006 xyz
    dof rx ry rz
  end
  begin
    id 9
    name HEadDummy
    direction -0.00347485 0.950688 -0.310128
    length 8.00997
    axis -0.001389 0.000121451 1.30017e-006 xyz
  end
  begin
    id 10
    name HEad
    direction -0.0222688 0.980941 0.193023
    length 5.12695
    axis -0.001389 0.000121451 1.30017e-006 xyz
    dof rx ry rz
  end
  begin
    id 11
    name LeftShoulder1Dummy
    direction 0.988871 0.146793 -0.0242004
    length 3.5792
    axis -0.001389 0.000121451 1.30017e-006 xyz
  end
  begin
    id 12
    name LeftShoulder1
    direction 0.993832 0.108932 0.020779
    length 4.16823
    axis -0.001389 0.000121451 1.30017e-006 xyz
    dof rx ry rz
  end
  begin
    id 13
    name LeftArm
    direction 1 3.44807e-006 -8.31404e-007
    length 9.91437
    axis -23.1894 0.134784 0.967509 xyz
    dof rx ry rz
  end
  begin
    id 14
    name LeftForeArm
    direction 1 3.44842e-006 -8.31581e-007
    length 9.08575
    axis -9.91835 -0.06569 -0.177793 xyz
    dof rx ry rz
  end
  begin
    id 15
    name LeftHand
    direction 0.992938 -0.0411636 0.11126
    length 5.32135
    axis -0.00960232 -0.00340091 0.185173 xyz
    dof rx ry rz
  end
  begin
    id 16
    name RightShoulderDummy
    direction -0.988871 0.146793 -0.0241962
    length 3.5792
    axis -0.001389 0.000121451 1.30017e-006 xyz
  end
  begin
    id 17
    name RightShoulder
    direction -0.993832 0.108933 0.0207785
    length 4.16823
    axis 0.215806 0.000203643 -0.0068026 xyz
    dof rx ry rz
  end
  begin
    id 18
    name RightArm
    direction -1 3.90912e-006 8.31284e-007
    length 9.91437
    axis -23.2009 -0.134239 -0.964101 xyz
    dof rx ry rz
  end
  begin
    id 19
    name RightForeArm
    direction -1 3.90882e-006 8.31502e-007
    length 9.08575
    axis -9.92322 0.0658061 0.178867 xyz
    dof rx ry rz
  end
  begin
    id 20
    name RightHand
    direction -0.992843 -0.0414603 0.112003
    length 5.28593
    axis -0.00960638 0.00330671 -0.185228 xyz
    dof rx ry rz
  end
  begin
    id 21
    name LeftUpLegDummy
    direction 1 -2.30186e-007 -8.31532e-007
    length 4.46685
    axis 0 0 0 xyz
  end
  begin
    id 22
    name LeftUpLeg
    direction -2.30187e-007 -1 6.00931e-010
    length 16.4045
    axis -3.48766 0.00143442 -0.000524262 xyz
    dof rx ry rz
  end
  begin
    id 23
    name LeftLeg
    direction -2.30187e-007 -1 1.6669e-009
    length 17.5097
    axis 3.68178 -0.00654042 -0.000285133 xyz
    dof rx ry rz
  end
  begin
    id 24
    name LeftFoot
    direction 8.31532e-007 -4.54478e-011 1
    length 6.49508
    axis 1.87233e-006 4.66016e-005 -8.6538e-006 xyz
    dof rx ry rz
  end
  begin
    id 25
    name LeftToes
    direction 0.00818058 -0.00485161 0.999955
    length 3.85048
    axis 1.06247e-005 4.65869e-005 -8.65513e-006 xyz
    dof rx ry rz
  end
:hierarchy
  begin
    root RightUpLegDummy SpineDummy LeftUpLegDummy
    RightUpLegDummy RightUpLeg
    RightUpLeg RightLeg
    RightLeg RightFoot
    RightFoot RightToes
    SpineDummy Spine
    Spine Spine1
    Spine1 HEadDummy LeftShoulder1Dummy RightShoulderDummy
    HEadDummy HEad
    LeftShoulder1Dummy LeftShoulder1
    LeftShoulder1 LeftArm
    LeftArm LeftForeArm
    LeftForeArm LeftHand
    RightShoulderDummy RightShoulder
    RightShoulder RightArm
    RightArm RightForeArm
    RightForeArm RightHand
    LeftUpLegDummy LeftUpLeg
    LeftUpLeg LeftLeg
    LeftLeg LeftFoot
    LeftFoot LeftToes
  end

:SAMPLES-PER-SECOND 30
:FULLY-SPECIFIED
:DEGREES
146
root  -3.36052 33.5284 -62.8123 68.3651 -84.7486 -58.5798
RightUpLeg  -28.6634 -0.546052 0.607919
RightLeg  23.5601 -10.7096 -3.84365
RightFoot  -3.27964 0.0073403 0.634085
RightToes  -22.1543 -0.0937908 -0.193914
Spine  4.563 -5.65664 1.8976
Spine1  8.87635 -11.5836 3.38332
HEad  25.2957 35.833 -6.72631
LeftShoulder1  0 -2.42657e-020 -4.95415e-022
LeftArm  2.47888 17.0938 -78.5033
LeftForeArm  43.27 -48.2062 -11.3807
LeftHand  0.182784 -10.4909 -2.36227
RightShoulder  0 2.42657e-020 1.07489e-018
RightArm  -30.2396 -30.3136 70.8365
RightForeArm  41.4738 47.5948 11.143
RightHand  -0.521145 22.7241 -2.22363
LeftUpLeg  2.25471 -1.95562 -4.97358
LeftLeg  21.8193 -5.36727 -1.75765
LeftFoot  -1.66983 0.002183 0.149788
LeftToes  0.256911 9.37529e-007 1.1992e-007
147
root  -5.44274 33.7733 -63.1579 55.916 -83.6428 -44.54
RightUpLeg  -28.4687 1.15391 0.485121
RightLeg  10.4137 -10.6028 -1.23994
RightFoot  -2.33989 0.000933107 0.423366
RightToes  -18.744 -0.0745685 -0.166648
Spine  4.20056 -6.47904 2.17455
Spine1  8.15301 -13.2232 3.89093
HEad  21.1518 38.9942 -9.87547
LeftShoulder1  0 -2.42657e-020 -4.95415e-022
LeftArm  5.0277 20.7361 -76.3694
LeftForeArm  44.9785 -56.0882 -15.2389
LeftHand  0.192814 -10.4536 -2.4791
RightShoulder  0 2.42657e-020 1.07489e-018
RightArm  -27.8033 -31.8449 70.1288
RightForeArm  41.9076 50.801 12.5076
RightHand  -0.457441 22.9135 -1.88733
LeftUpLeg  1.32882 -2.27241 -3.61947
LeftLeg  25.2575 -6.17363 -2.43813
LeftFoot  3.77724 0.0152978 -0.463934
LeftToes  -4.30903 9.37529e-007 1.1992e-007
148
root  -7.58863 33.5925 -63.5476 46.9233 -82.415 -35.4861
RightUpLeg  -29.6498 1.83655 0.91608
RightLeg  8.95039 -6.18516 -0.566678
RightFoot  -1.32428 -0.00291574 0.125325
RightToes  -25.214 -0.112391 -0.217365
Spine  4.21181 -7.12433 2.15979
Spine1  8.19421 -14.4938 3.78354
HEad  17.8369 41.338 -11.069
LeftShoulder1  0 -2.42657e-020 -4.95415e-022
LeftArm  7.44899 23.9128 -73.8866
LeftForeArm  47.3281 -63.1622 -20.4791
LeftHand  0.234775 -10.0786 -3.034
RightShoulder  0 2.42657e-020 1.07489e-018
RightArm  -24.9669 -32.4632 69.7171
RightForeArm  42.3479 54.0794 14.1224
RightHand  -0.291532 23.2652 -1.04634
LeftUpLeg  -0.342021 -2.60679 -2.34921
LeftLeg  33.139 -6.28158 -3.54031
LeftFoot  7.25103 0.0598476 -0.944526
LeftToes  -7.2536 9.37529e-007 1.1992e-007
149
root  -9.87818 33.0185 -64.0498 47.8554 -80.2314 -38.0169
RightUpLeg  -30.0499 5.10771 2.48871
RightLeg  15.7856 -5.31716 -1.13721
RightFoot  -0.822644 -0.00232292 0.0540263
RightToes  -28.6442 -0.134697 -0.242433
Spine  4.68413 -7.11624 2.32758
Spine1  9.13811 -14.4851 4.01223
HEad  15.9645 42.5693 -10.1438
LeftShoulder1  0 -2.42657e-020 -4.95415e-022
LeftArm  9.97996 24.9387 -72.0431
LeftForeArm  50.0178 -68.283 -26.4305
LeftHand  0.326225 -10.2909 -3.99424
RightShoulder  0 2.42657e-020 1.07489e-018
RightArm  -22.223 -32.4493 69.4992
RightForeArm  42.4782 56.3247 15.3925
RightHand  -0.398228 23.3075 -1.56104
LeftUpLeg  -2.20726 -2.86232 0.84481
LeftLeg  44.6457 -6.3173 -5.46307
LeftFoot  10.6199 0.147423 -1.58609
LeftToes  -13.7729 9.37529e-007 1.1992e-007
150
root  -12.0773 32.0637 -64.4895 45.7156 -78.3815 -38.0287
RightUpLeg  -31.6581 1.67645 5.64896
RightLeg  28.4932 -3.20893 -1.48918
RightFoot  0.342944 0.00131422 -0.0614548
RightToes  -33.1283 -0.166046 -0.27311
Spine  5.19345 -6.61123 2.32244
Spine1  10.161 -13.4766 3.94636
HEad  14.4813 43.6896 -9.56594
LeftShoulder1  0 -2.42657e-020 -4.95415e-022
LeftArm  10.8533 24.8139 -71.5559
LeftForeArm  53.7376 -71.5316 -32.0969
LeftHand  0.504896 -10.8177 -5.70223
RightShoulder  0 2.42657e-020 1.07489e-018
RightArm  -19.5388 -32.4166 69.2468
RightForeArm  43.8808 58.903 17.06
RightHand  -0.695148 23.5676 -2.96207
LeftUpLeg  -5.46774 -4.15487 3.07826
LeftLeg  58.311 -4.76405 -6.68266
LeftFoot  14.1256 0.254715 -2.05565
LeftToes  -22.0006 9.37529e-007 1.1992e-007
151
root  -14.2356 31.113 -64.718 43.2322 -76.2725 -38.9498
RightUpLeg  -31.582 -4.72267 8.75052
RightLeg  40.6782 0.626035 0.447769
RightFoot  -4.70695 -0.0199228 -0.107216
RightToes  -31.4559 -0.154074 -0.261956
Spine  6.48075 -5.66186 2.67909
Spine1  12.636 -11.6819 4.58708
HEad  10.3956 45.2947 -11.9191
LeftShoulder1  0 -2.42657e-020 -4.95415e-022
LeftArm  8.94845 22.2773 -74.396
LeftForeArm  52.9586 -71.4578 -31.9442
LeftHand  0.639754 -11.1566 -6.91739
RightShoulder  0 2.42657e-020 1.07489e-018
RightArm  -18.0309 -29.6216 68.7698
RightForeArm  43.5474 59.1746 17.2519
RightHand  -1.11811 23.4948 -5.00431
LeftUpLeg  -9.06061 -6.9267 4.4404
LeftLeg  71.9923 -2.57964 -6.47349
LeftFoot  6.91754 0.0544409 -0.90073
LeftToes  -18.9332 9.37529e-007 1.1992e-007
152
root  -16.3245 30.4373 -64.9535 41.9806 -73.7248 -38.9146
RightUpLeg  -29.7124 -7.71481 11.0056
RightLeg  46.2615 1.08802 0.963624
RightFoot  -11.5832 -0.0706004 -0.318527
RightToes  -31.2215 -0.152422 -0.260365
Spine  7.07435 -4.24448 3.18019
Spine1  13.7348 -8.92931 5.63542
HEad  6.11264 47.5362 -14.4124
LeftShoulder1  0 -2.42657e-020 -4.95415e-022
LeftArm  6.52466 19.2717 -78.7996
LeftForeArm  47.8473 -67.9483 -25.9552
LeftHand  0.507265 -10.6378 -5.81825
RightShoulder  0 2.42657e-020 1.07489e-018
RightArm  -17.5045 -25.9199 69.3313
RightForeArm  41.6809 54.7203 14.4708
RightHand  -1.65305 22.6089 -7.88777
LeftUpLeg  -15.7735 -8.80817 6.62927
LeftLeg  82.521 -0.707769 -3.6175
LeftFoot  0.632753 0.000624419 -0.113091
LeftToes  -14.3504 9.37529e-007 1.1992e-007
153
root  -18.3633 30.2378 -65.0001 40.0902 -72.1094 -38.0271
RightUpLeg  -25.6421 -8.16239 12.1052
RightLeg  47.343 0.125754 0.0812614
RightFoot  -15.9716 -0.0595023 -0.0465967
RightToes  -30.0905 -0.144544 -0.252594
Spine  7.27124 -2.41136 3.49273
Spine1  14.1001 -5.29877 6.43613
HEad  5.3555 49.6175 -15.0661
LeftShoulder1  0 -2.42657e-020 -4.95415e-022
LeftArm  1.67959 18.1422 -84.4992
LeftForeArm  46.8016 -62.7207 -20.0747
LeftHand  0.331117 -10.1703 -4.0924
RightShoulder  0 2.42657e-020 1.07489e-018
RightArm  -17.8277 -21.2404 70.4209
RightForeArm  41.994 47.0501 10.9277
RightHand  -1.89709 21.9098 -9.41064
LeftUpLeg  -22.2786 -9.45175 7.49486
LeftLeg  87.922 0.144557 1.36465
LeftFoot  -5.07052 -0.00856391 -0.193423
LeftToes  -6.06822 9.37529e-007 1.1992e-007
154
root  -20.4071 30.5693 -64.845 35.1162 -71.7114 -33.7453
RightUpLeg  -19.373 -9.03127 11.3061
RightLeg  44.0075 -0.304913 -0.28941
RightFoot  -17.8818 -0.0369805 0.1425
RightToes  -29.8668 -0.143005 -0.251039
Spine  7.11525 -0.599547 2.91393
Spine1  13.8793 -1.54749 5.47868
HEad  6.64138 50.8863 -13.223
LeftShoulder1  0 -2.42657e-020 -4.95415e-022
LeftArm  -3.1638 19.9395 -87.5033
LeftForeArm  47.4555 -60.5757 -18.2762
LeftHand  0.12224 -10.1379 -1.74918
RightShoulder  0 2.42657e-020 1.07489e-018
RightArm  -18.2215 -16.9701 72.968
RightForeArm  43.5292 38.434 8.03243
RightHand  -1.75002 22.1195 -8.56819
LeftUpLeg  -27.5174 -9.6283 5.99449
LeftLeg  86.7863 0.545163 4.44187
LeftFoot  -10.0242 -0.0724875 -0.82652
LeftToes  1.5079 9.37529e-007 1.1992e-007
